<svg width="1257" height="712" viewBox="0 0 1257 712" fill="none" xmlns="http://www.w3.org/2000/svg">
<g clip-path="url(#clip0_2092_22858)">
<g opacity="0.23">
<line x1="58.5701" y1="-84" x2="58.5701" y2="960" stroke="#BD8CFB" stroke-width="1.14017" stroke-dasharray="2.28 2.28"/>
<path d="M118 -84L118 930" stroke="#BD8CFB" stroke-width="1.14017" stroke-dasharray="2.28 2.28"/>
<path d="M178 -84L178 984" stroke="#BD8CFB" stroke-width="1.14017" stroke-dasharray="2.28 2.28"/>
<path d="M238 -84L238 1024" stroke="#BD8CFB" stroke-width="1.14017" stroke-dasharray="2.28 2.28"/>
<line x1="298.57" y1="-84" x2="298.57" y2="960" stroke="#BD8CFB" stroke-width="1.14017" stroke-dasharray="2.28 2.28"/>
<line x1="358.57" y1="-84" x2="358.57" y2="960" stroke="#BD8CFB" stroke-width="1.14017" stroke-dasharray="2.28 2.28"/>
<line x1="418.57" y1="-84" x2="418.57" y2="960" stroke="#BD8CFB" stroke-width="1.14017" stroke-dasharray="2.28 2.28"/>
<line x1="478.57" y1="-84" x2="478.57" y2="960" stroke="#BD8CFB" stroke-width="1.14017" stroke-dasharray="2.28 2.28"/>
<line x1="538.57" y1="-84" x2="538.57" y2="960" stroke="#BD8CFB" stroke-width="1.14017" stroke-dasharray="2.28 2.28"/>
<line x1="598.57" y1="-84" x2="598.57" y2="960" stroke="#BD8CFB" stroke-width="1.14017" stroke-dasharray="2.28 2.28"/>
<line x1="658.57" y1="-84" x2="658.57" y2="960" stroke="#BD8CFB" stroke-width="1.14017" stroke-dasharray="2.28 2.28"/>
<line x1="718.57" y1="-84" x2="718.57" y2="960" stroke="#BD8CFB" stroke-width="1.14017" stroke-dasharray="2.28 2.28"/>
<line x1="778.57" y1="-84" x2="778.57" y2="960" stroke="#BD8CFB" stroke-width="1.14017" stroke-dasharray="2.28 2.28"/>
<line x1="838.57" y1="-84" x2="838.57" y2="960" stroke="#BD8CFB" stroke-width="1.14017" stroke-dasharray="2.28 2.28"/>
<line x1="898.57" y1="-84" x2="898.57" y2="960" stroke="#BD8CFB" stroke-width="1.14017" stroke-dasharray="2.28 2.28"/>
<line x1="958.57" y1="-84" x2="958.57" y2="960" stroke="#BD8CFB" stroke-width="1.14017" stroke-dasharray="2.28 2.28"/>
<path d="M1018 -84L1018 963" stroke="#BD8CFB" stroke-width="1.14017" stroke-dasharray="2.28 2.28"/>
<path d="M1078 -84L1078 963" stroke="#BD8CFB" stroke-width="1.14017" stroke-dasharray="2.28 2.28"/>
<path d="M1138 -84L1138 963" stroke="#BD8CFB" stroke-width="1.14017" stroke-dasharray="2.28 2.28"/>
<path d="M1198 -84L1198 1024" stroke="#BD8CFB" stroke-width="1.14017" stroke-dasharray="2.28 2.28"/>
</g>
<g opacity="0.23">
<line x1="-6" y1="59.4299" x2="1257" y2="59.4299" stroke="#BD8CFB" stroke-width="1.14017" stroke-dasharray="2.28 2.28"/>
<line x1="-6" y1="119.43" x2="1257" y2="119.43" stroke="#BD8CFB" stroke-width="1.14017" stroke-dasharray="2.28 2.28"/>
<line x1="-6" y1="179.43" x2="1257" y2="179.43" stroke="#BD8CFB" stroke-width="1.14017" stroke-dasharray="2.28 2.28"/>
<line x1="-6" y1="239.43" x2="1257" y2="239.43" stroke="#BD8CFB" stroke-width="1.14017" stroke-dasharray="2.28 2.28"/>
<line x1="-6" y1="299.43" x2="1257" y2="299.43" stroke="#BD8CFB" stroke-width="1.14017" stroke-dasharray="2.28 2.28"/>
<line x1="-6" y1="359.43" x2="1257" y2="359.43" stroke="#BD8CFB" stroke-width="1.14017" stroke-dasharray="2.28 2.28"/>
<line x1="-6" y1="419.43" x2="1257" y2="419.43" stroke="#BD8CFB" stroke-width="1.14017" stroke-dasharray="2.28 2.28"/>
<line x1="-6" y1="479.43" x2="1257" y2="479.43" stroke="#BD8CFB" stroke-width="1.14017" stroke-dasharray="2.28 2.28"/>
<line x1="-6" y1="539.43" x2="1257" y2="539.43" stroke="#BD8CFB" stroke-width="1.14017" stroke-dasharray="2.28 2.28"/>
<line x1="-6" y1="599.43" x2="1257" y2="599.43" stroke="#BD8CFB" stroke-width="1.14017" stroke-dasharray="2.28 2.28"/>
<line x1="-6" y1="659.43" x2="1257" y2="659.43" stroke="#BD8CFB" stroke-width="1.14017" stroke-dasharray="2.28 2.28"/>
</g>
</g>
<defs>
<clipPath id="clip0_2092_22858">
<rect width="1257" height="712" fill="white"/>
</clipPath>
</defs>
</svg>
